<?xml version="1.0" standalone="no"?>
<!DOCTYPE svg PUBLIC "-//W3C//DTD SVG 1.1//EN" "http://www.w3.org/Graphics/SVG/1.1/DTD/svg11.dtd" >
<svg>
<metadata>
Created by FontForge 20090622 at Mon Aug 27 21:49:06 2018
 By deploy user
&#60; info@fontfont.de &#62; Copyright Ole Schaefer, 1999. Published by FontShop International for  FontFont Release 25, Fago Condensed is a trademark of FSI Fonts and Software GmbH.
</metadata>
<defs>
<font id="FagoCo" horiz-adv-x="470" >
  <font-face 
    font-family="FagoCo"
    font-weight="500"
    font-stretch="normal"
    units-per-em="1000"
    panose-1="0 0 0 0 0 0 0 0 0 0"
    ascent="800"
    descent="-200"
    x-height="530"
    cap-height="700"
    bbox="-120 -200 1041 915"
    underline-thickness="50"
    underline-position="-75"
    unicode-range="U+0020-U+FB02"
  />
<missing-glyph horiz-adv-x="220" 
 />
    <glyph glyph-name=".notdef" horiz-adv-x="220" 
 />
    <glyph glyph-name=".null" horiz-adv-x="0" 
 />
    <glyph glyph-name="nonmarkingreturn" horiz-adv-x="333" 
 />
    <glyph glyph-name="space" unicode=" " horiz-adv-x="220" 
 />
    <glyph glyph-name="exclam" unicode="!" horiz-adv-x="291" 
d="M194 700l-15 -460h-66l-15 460h96zM211 58q0 -29 -18.5 -48.5t-46.5 -19.5t-47 20t-19 48t19 47.5t47 19.5t46.5 -19.5t18.5 -47.5z" />
    <glyph glyph-name="quotedbl" unicode="&#x22;" horiz-adv-x="403" 
d="M333 700l-21 -275h-62l-20 275h103zM173 700l-21 -275h-62l-20 275h103z" />
    <glyph glyph-name="numbersign" unicode="#" horiz-adv-x="590" 
d="M540 170h-100v-170h-70v170h-150v-170h-70v170h-100v68h100v224h-100v68h100v170h70v-170h150v170h70v-170h100v-68h-100v-224h100v-68zM370 238v224h-150v-224h150z" />
    <glyph glyph-name="dollar" unicode="$" horiz-adv-x="340" 
d="M310 178q0 -137 -105 -169v-119h-70v110q-22 0 -48 4.5t-41 9.5l-14 4v74q58 -20 100 -20q21 0 35.5 3t30 12.5t24 31t8.5 53.5q0 41 -17 67.5t-51 57.5l-57 51q-36 32 -55.5 66.5t-19.5 87.5q0 74 33.5 112.5t81.5 50.5v115h70v-112l68 -14v-71q-49 18 -93 18
q-34 0 -58 -21t-24 -70q0 -60 56 -110l50 -45q31 -28 48 -46.5t32.5 -54t15.5 -76.5z" />
    <glyph glyph-name="percent" unicode="%" horiz-adv-x="767" 
d="M727 170q0 -180 -137 -180q-63 0 -100 39.5t-37 140.5q0 98 38.5 139t98.5 41q137 0 137 -180zM560 710l-280 -720h-72l280 720h72zM314 530q0 -180 -137 -180q-63 0 -100 39.5t-37 140.5q0 98 38.5 139t98.5 41q137 0 137 -180zM657 170q0 72 -16 99t-51 27
q-33 0 -50 -27t-17 -99q0 -71 16 -97.5t51 -26.5q33 0 50 25.5t17 98.5zM244 530q0 72 -16 99t-51 27q-33 0 -50 -27t-17 -99q0 -71 16 -97.5t51 -26.5q33 0 50 25.5t17 98.5z" />
    <glyph glyph-name="ampersand" unicode="&#x26;" horiz-adv-x="615" 
d="M595 0l-100 -10l-64 89q-74 -89 -183 -89q-88 0 -143 44.5t-55 144.5q0 32 7.5 60t23 49t29.5 36.5t36 28.5t32.5 18.5l28.5 14.5q-95 59 -95 159q0 78 43.5 121.5t122.5 43.5q76 0 119.5 -41t43.5 -112q0 -122 -133 -178l123 -167q45 87 45 214h80q0 -152 -76 -279z
M363 550q0 100 -85 100q-88 0 -88 -105q0 -72 72 -127q47 19 74 53t27 79zM389 139l-144 201q-33 -15 -54.5 -29.5t-41 -48.5t-19.5 -81q0 -64 31 -95.5t87 -31.5q38 0 77 24t64 61z" />
    <glyph glyph-name="quotesingle" unicode="'" horiz-adv-x="243" 
d="M173 700l-21 -275h-62l-20 275h103z" />
    <glyph glyph-name="parenleft" unicode="(" horiz-adv-x="263" 
d="M253 -150h-78l-14.5 28.5t-32.5 74t-41 110.5t-32.5 129t-14.5 138q0 101 34 221t68 189l33 70h78l-13.5 -27t-29.5 -71t-37 -108t-29.5 -130t-13.5 -144q0 -108 31 -228t61 -186z" />
    <glyph glyph-name="parenright" unicode=")" horiz-adv-x="263" 
d="M223 330q0 -64 -14 -137t-33.5 -131.5t-39.5 -107.5t-34 -76l-14 -28h-78l13.5 27t29.5 71t37 108t29.5 130t13.5 144t-12.5 142.5t-30.5 132.5t-36.5 105.5t-31.5 73.5l-12 26h78l14.5 -28.5t32.5 -74t41 -110.5t32.5 -129t14.5 -138z" />
    <glyph glyph-name="asterisk" unicode="*" horiz-adv-x="435" 
d="M385 490l-40 -70l-107 84l20 -134h-81l20 134l-107 -84l-40 70l126 50l-126 50l40 70l107 -84l-20 134h81l-20 -134l107 84l40 -70l-126 -50z" />
    <glyph glyph-name="plus" unicode="+" horiz-adv-x="550" 
d="M480 295h-165v-170h-80v170h-165v80h165v170h80v-170h165v-80z" />
    <glyph glyph-name="comma" unicode="," horiz-adv-x="276" 
d="M207 125l-45 -275h-72l18 275h99z" />
    <glyph glyph-name="hyphen" unicode="-" horiz-adv-x="460" 
d="M390 305h-320v75h320v-75z" />
    <glyph glyph-name="period" unicode="." horiz-adv-x="291" 
d="M211 58q0 -29 -18.5 -48.5t-46.5 -19.5t-47 20t-19 48t19 47.5t47 19.5t46.5 -19.5t18.5 -47.5z" />
    <glyph glyph-name="slash" unicode="/" horiz-adv-x="252" 
d="M222 710l-120 -720h-72l120 720h72z" />
    <glyph glyph-name="zero" unicode="0" horiz-adv-x="480" 
d="M430 280q0 -71 -11.5 -124.5t-29 -84.5t-44 -50t-51 -25t-54.5 -6q-190 0 -190 290t190 290q35 0 65 -11.5t60 -40.5t47.5 -90t17.5 -148zM350 280q0 127 -28.5 178t-81.5 51t-81.5 -50.5t-28.5 -178.5q0 -228 110 -228t110 228z" />
    <glyph glyph-name="one" unicode="1" horiz-adv-x="270" 
d="M190 0h-80v473l-100 -43v67l120 63h60v-560z" />
    <glyph glyph-name="two" unicode="2" horiz-adv-x="361" 
d="M312 77l-10 -77h-272v75l79 90q69 78 88 110q34 57 34 120q0 55 -19 80.5t-63 25.5q-28 0 -57.5 -5.5t-44.5 -11.5l-15 -6v65q45 27 123 27q71 0 113.5 -41t42.5 -129q0 -76 -38 -139.5t-109 -136.5l-45 -47h193z" />
    <glyph glyph-name="three" unicode="3" horiz-adv-x="370" 
d="M320 97q0 -108 -75 -167q-78 -62 -225 -65v65q113 6 166 45q54 41 54 122q0 70 -34 97.5t-95 27.5h-51v65h52q112 0 112 118q0 50 -20 73.5t-67 23.5q-21 0 -50.5 -5t-48.5 -9l-18 -5v66q60 21 123 21q161 0 161 -161q0 -56 -29 -97t-77 -54q51 -10 86.5 -50t35.5 -111z
" />
    <glyph glyph-name="four" unicode="4" horiz-adv-x="453" 
d="M443 123l-10 -77h-88v-151l-80 -10v161h-235v65l76 449h89l-80 -437h150l14 247h66v-247h98z" />
    <glyph glyph-name="five" unicode="5" horiz-adv-x="410" 
d="M365 129q0 -131 -85 -198q-80 -62 -215 -67v66q108 6 164 53q28 24 42 55t14 82q0 71 -20.5 99t-64.5 28q-23 0 -49.5 -9t-42.5 -18l-15 -9l-33 11l10 338h285l-10 -76h-201l-9 -192q43 22 86 22q64 0 104 -46t40 -139z" />
    <glyph glyph-name="six" unicode="6" horiz-adv-x="460" 
d="M420 223q0 -233 -185 -233q-42 0 -73.5 12.5t-57.5 43t-40 89.5t-14 145q0 61 9.5 116t32.5 108.5t58.5 93.5t91 67.5t126.5 33.5v-67q-100 -12 -154.5 -66t-77.5 -177q5 5 14.5 11.5t41.5 18t68 11.5q160 0 160 -207zM340 223q0 81 -20 112.5t-70 31.5q-34 0 -63 -8.5
t-41 -16.5l-13 -8q-3 -45 -3 -64q0 -126 25 -172t80 -46q54 0 79.5 35t25.5 136z" />
    <glyph glyph-name="seven" unicode="7" horiz-adv-x="330" 
d="M320 493q-107 -148 -138 -266t-31 -322l-80 -10q0 205 36.5 335.5t137.5 252.5h-235v77h310v-67z" />
    <glyph glyph-name="eight" unicode="8" horiz-adv-x="486" 
d="M436 174q0 -92 -56 -138t-137 -46q-193 0 -193 181q0 61 35.5 105.5t84.5 67.5q-102 57 -102 158q0 87 51 127.5t124 40.5t124 -39.5t51 -127.5q0 -99 -110 -158q128 -54 128 -171zM338 504q0 104 -95 104q-48 0 -71.5 -24.5t-23.5 -81.5q0 -42 19.5 -71t44.5 -41l40 -19
q86 57 86 133zM356 175q0 30 -8 52t-26 36.5t-28.5 20.5t-33.5 16l-42 18q-26 -16 -42 -31t-31 -45.5t-15 -69.5q0 -119 113 -119t113 122z" />
    <glyph glyph-name="nine" unicode="9" horiz-adv-x="462" 
d="M412 266q0 -194 -83 -294t-219 -108v66q195 27 219 241q-4 -4 -12.5 -11t-38 -18t-61.5 -11q-85 0 -131 54t-46 153q0 108 48 170t139 62q102 0 143.5 -81t41.5 -223zM334 232q2 57 -0.5 100.5t-12.5 87t-33.5 67t-60.5 23.5q-107 0 -107 -161q0 -77 22.5 -116.5
t83.5 -39.5q23 0 50 9.5t42 19.5z" />
    <glyph glyph-name="colon" unicode=":" horiz-adv-x="291" 
d="M211 473q0 -29 -18.5 -48.5t-46.5 -19.5t-47 20t-19 48t19 47.5t47 19.5t46.5 -19.5t18.5 -47.5zM211 58q0 -29 -18.5 -48.5t-46.5 -19.5t-47 20t-19 48t19 47.5t47 19.5t46.5 -19.5t18.5 -47.5z" />
    <glyph glyph-name="semicolon" unicode=";" horiz-adv-x="291" 
d="M231 473q0 -29 -18.5 -48.5t-46.5 -19.5t-47 20t-19 48t19 47.5t47 19.5t46.5 -19.5t18.5 -47.5zM207 125l-45 -275h-72l18 275h99z" />
    <glyph glyph-name="less" unicode="&#x3c;" horiz-adv-x="530" 
d="M460 90l-390 210v70l390 210v-95l-313 -148l313 -152v-95z" />
    <glyph glyph-name="equal" unicode="=" horiz-adv-x="530" 
d="M460 390h-390v80h390v-80zM460 200h-390v80h390v-80z" />
    <glyph glyph-name="greater" unicode="&#x3e;" horiz-adv-x="530" 
d="M460 300l-390 -210v95l313 152l-313 148v95l390 -210v-70z" />
    <glyph glyph-name="question" unicode="?" horiz-adv-x="338" 
d="M288 582q0 -18 -3 -34.5t-6 -26.5t-11.5 -24t-12 -19t-15 -19.5t-14.5 -17.5q-17 -22 -25.5 -35t-16.5 -39.5t-8 -59.5q0 -32 7 -67h-74q-5 38 -5 62q0 60 16.5 98t45.5 75q44 56 44 105q0 33 -16 46.5t-47 13.5q-18 0 -41 -5t-37 -10l-14 -5v66q43 24 102 24
q62 0 96.5 -28.5t34.5 -99.5zM215 58q0 -29 -18.5 -48.5t-46.5 -19.5t-47 20t-19 48t19 47.5t47 19.5t46.5 -19.5t18.5 -47.5z" />
    <glyph glyph-name="at" unicode="@" horiz-adv-x="899" 
d="M849 326q0 -147 -50.5 -230t-137.5 -83q-32 0 -56 12t-35 29.5t-18 34.5t-8 29l-1 12q-2 -5 -6.5 -13t-19.5 -28.5t-31 -36.5t-42 -29t-53 -13q-55 0 -94.5 41.5t-39.5 130.5q0 133 59.5 224.5t157.5 91.5q31 0 56 -10t34 -20l10 -9l15 31h59l-48 -289q-9 -54 9 -85.5
t54 -31.5q111 0 111 242q0 158 -79.5 238.5t-214.5 80.5q-156 0 -255.5 -111.5t-99.5 -307.5q0 -97 26.5 -169.5t71 -113t94 -59.5t103.5 -19q44 0 90 5.5t70 10.5l24 5v-69q-77 -17 -184 -17q-75 0 -139.5 24.5t-117 73.5t-83 133.5t-30.5 194.5q0 217 121.5 350.5
t308.5 133.5q173 0 271 -103.5t98 -280.5zM557 411q-28 25 -78 25q-62 0 -100.5 -69t-38.5 -179q0 -112 59 -112q28 0 59 33.5t48 66.5l16 34z" />
    <glyph glyph-name="A" unicode="A" horiz-adv-x="460" 
d="M450 0h-88l-35 166h-194l-35 -166h-88l173 700h94zM314 234l-53 254l-31 165q-17 -97 -31 -165l-53 -254h168z" />
    <glyph glyph-name="B" unicode="B" horiz-adv-x="480" 
d="M430 198q0 -103 -50 -150.5t-173 -47.5h-127v700h127q111 0 157 -42t46 -133q0 -133 -120 -161q140 -27 140 -166zM330 522q0 70 -27 92.5t-108 22.5h-35v-247h27q78 0 110.5 31.5t32.5 100.5zM350 198q0 74 -39.5 103t-123.5 29h-27v-267h44q83 0 114.5 29.5t31.5 105.5
z" />
    <glyph glyph-name="C" unicode="C" horiz-adv-x="360" 
d="M340 10q-54 -20 -102 -20q-31 0 -55.5 7.5t-50.5 30.5t-43 61t-28 104.5t-11 156.5q0 89 13.5 156t33.5 105t48.5 61t53 30.5t52.5 7.5q26 0 48 -5t31 -10l10 -5v-69q-37 20 -92 20q-50 0 -84 -67t-34 -224q0 -289 108 -289q20 0 45.5 5.5t40.5 10.5l16 5v-72z" />
    <glyph glyph-name="D" unicode="D" horiz-adv-x="490" 
d="M440 350q0 -87 -12.5 -150.5t-33.5 -101.5t-54.5 -60.5t-69 -30t-83.5 -7.5h-107v700h104q47 0 80.5 -6t69 -27t57 -58t35.5 -102.5t14 -156.5zM360 350q0 113 -20 176t-53 84t-89 21h-38v-562h33q45 0 74 11t51.5 41t32 85.5t9.5 143.5z" />
    <glyph glyph-name="E" unicode="E" horiz-adv-x="390" 
d="M360 0h-280v700h280v-73h-200v-217h180v-68h-180v-269h200v-73z" />
    <glyph glyph-name="F" unicode="F" horiz-adv-x="375" 
d="M360 700l-10 -75h-190v-215h180v-68h-180v-342h-80v700h280z" />
    <glyph glyph-name="G" unicode="G" horiz-adv-x="515" 
d="M440 30q-95 -40 -170 -40q-20 0 -35 1.5t-39.5 9t-42.5 21t-38.5 40t-33.5 63.5t-22 95t-9 130q0 91 17.5 159t43.5 105.5t61.5 60t63.5 29t59 6.5q37 0 68 -7t44 -13l13 -7v-69q-51 26 -127 26q-23 0 -44 -6t-43.5 -25.5t-38.5 -50t-26.5 -84t-10.5 -124.5
q0 -75 9.5 -130.5t23 -85.5t34 -48t37 -23t36.5 -5t42.5 5t35.5 9l12 5v266h-90v67h170v-380z" />
    <glyph glyph-name="H" unicode="H" horiz-adv-x="530" 
d="M450 0h-80v342h-210v-342h-80v700h80v-290h210v290h80v-700z" />
    <glyph glyph-name="I" unicode="I" horiz-adv-x="242" 
d="M162 0h-82v700h82v-700z" />
    <glyph glyph-name="J" unicode="J" horiz-adv-x="280" 
d="M200 115q0 -71 -33.5 -98t-88.5 -27q-17 0 -36.5 3.5t-30.5 6.5l-11 4v67q41 -12 63 -12q30 0 43.5 12.5t13.5 49.5v579h80v-585z" />
    <glyph glyph-name="K" unicode="K" horiz-adv-x="460" 
d="M450 0l-95 -10l-175 391l162 319h98l-180 -319zM160 0h-80v700h80v-700z" />
    <glyph glyph-name="L" unicode="L" horiz-adv-x="330" 
d="M320 74l-10 -74h-230v700h80v-626h160z" />
    <glyph glyph-name="M" unicode="M" horiz-adv-x="670" 
d="M595 0h-79l-7 366l1 182q-32 -95 -52 -140l-123 -281l-124 281q-9 20 -21.5 55l-21.5 59l-8 25l1 -181l-7 -366h-79l24 700h64l172 -425l173 425h63z" />
    <glyph glyph-name="N" unicode="N" horiz-adv-x="520" 
d="M440 0h-69l-155 377l-68 182q12 -107 12 -200v-359h-80v700h74l152 -362q16 -37 32.5 -84.5t25.5 -76.5l8 -29q-12 120 -12 208v344h80v-700z" />
    <glyph glyph-name="O" unicode="O" 
d="M430 350q0 -91 -12 -158.5t-30.5 -105.5t-45.5 -60.5t-51.5 -29t-55.5 -6.5t-55.5 6.5t-52 28.5t-45.5 60t-30 105.5t-12 159.5q0 91 12.5 158.5t31.5 105.5t46.5 60.5t51.5 29t53 6.5q38 0 68 -12.5t61 -47.5t48.5 -111t17.5 -189zM350 350q0 300 -115 300t-115 -300
q0 -163 33 -231.5t82 -68.5t82 68.5t33 231.5z" />
    <glyph glyph-name="P" unicode="P" horiz-adv-x="440" 
d="M410 460q0 -121 -62 -175t-188 -58v-227h-80v700h107q121 0 172 -57t51 -183zM330 460q0 102 -31.5 137t-107.5 35h-31v-346q97 4 133.5 44t36.5 130z" />
    <glyph glyph-name="Q" unicode="Q" 
d="M430 350q0 -334 -163 -358l88 -182h-107l-45 182q-34 5 -60.5 22t-51 55t-38 109t-13.5 172q0 92 12.5 160t31 105.5t46.5 59.5t52 28.5t53 6.5q30 0 54.5 -7t52 -29.5t46 -60.5t30.5 -105.5t12 -157.5zM350 350q0 300 -115 300t-115 -300q0 -163 33 -232t82 -69t82 69
t33 232z" />
    <glyph glyph-name="R" unicode="R" 
d="M430 0h-90l-40 179q-23 104 -70 126q-38 -5 -70 -5v-300h-80v700h127q109 0 161 -42t52 -150q0 -138 -114 -183q28 -18 43 -47.5t28 -79.5zM340 508q0 75 -29 99.5t-111 24.5h-40v-272q48 3 75.5 8t54.5 20t38.5 44t11.5 76z" />
    <glyph glyph-name="S" unicode="S" horiz-adv-x="360" 
d="M325 179q0 -189 -188 -189q-22 0 -47 4.5t-39 9.5l-14 4v74q55 -20 100 -20q50 0 79 25t29 88q0 35 -11.5 62.5t-23.5 41t-38 37.5l-58 54q-69 63 -69 159t50.5 138.5t119.5 42.5q20 0 43 -4t36 -8l14 -4v-71q-49 18 -93 18q-42 0 -67 -26.5t-25 -77.5q0 -40 15 -66.5
t44 -54.5l54 -51q42 -40 65.5 -81.5t23.5 -104.5z" />
    <glyph glyph-name="T" unicode="T" horiz-adv-x="350" 
d="M370 700l-10 -75h-135v-625h-80v625h-145v75h370z" />
    <glyph glyph-name="U" unicode="U" horiz-adv-x="496" 
d="M421 180q0 -100 -43.5 -145t-129.5 -45q-89 0 -131 43.5t-42 146.5v520h80v-535q0 -58 22.5 -84t70.5 -26q93 0 93 110v535h80v-520z" />
    <glyph glyph-name="V" unicode="V" horiz-adv-x="400" 
d="M410 700l-156 -700h-108l-156 700h95l86 -480l29 -185q17 113 30 185l85 480h95z" />
    <glyph glyph-name="W" unicode="W" horiz-adv-x="690" 
d="M685 700l-112 -700h-113l-85 472l-30 186q-16 -111 -30 -186l-85 -472h-113l-112 700h94l57 -483l17 -179q15 119 26 179l85 483h123l85 -483l25 -179l19 179l55 483h94z" />
    <glyph glyph-name="X" unicode="X" horiz-adv-x="400" 
d="M410 0h-101l-109 320l-110 -320h-100l156 374l-146 326h103l97 -280l97 280h103l-145 -326z" />
    <glyph glyph-name="Y" unicode="Y" horiz-adv-x="400" 
d="M410 700l-170 -412v-288h-80v288l-170 412h98l112 -342l112 342h98z" />
    <glyph glyph-name="Z" unicode="Z" horiz-adv-x="368" 
d="M330 0h-290v61l210 570h-210v69h290v-61l-210 -570h210v-69z" />
    <glyph glyph-name="bracketleft" unicode="[" horiz-adv-x="300" 
d="M280 -150h-200v960h200v-71h-120v-818h120v-71z" />
    <glyph glyph-name="backslash" unicode="\" horiz-adv-x="252" 
d="M222 -10h-72l-120 720h72z" />
    <glyph glyph-name="bracketright" unicode="]" horiz-adv-x="300" 
d="M220 -150h-200v71h120v818h-120v71h200v-960z" />
    <glyph glyph-name="asciicircum" unicode="^" horiz-adv-x="446" 
d="M406 420h-92l-91 284l-91 -284h-92l134 350h98z" />
    <glyph glyph-name="underscore" unicode="_" horiz-adv-x="490" 
d="M490 -190h-490v75h490v-75z" />
    <glyph glyph-name="grave" unicode="`" horiz-adv-x="266" 
d="M236 620h-82l-124 150h108z" />
    <glyph glyph-name="a" unicode="a" horiz-adv-x="440" 
d="M365 0h-67l-10 52q-44 -62 -105 -62q-138 0 -138 171q0 40 12.5 70.5t30.5 48t43 28.5t45.5 14.5t41.5 3.5h67v75q0 43 -15 58t-55 15q-27 0 -59.5 -6t-51.5 -12l-19 -7v66q66 25 144 25q64 0 100 -30.5t36 -118.5v-391zM285 111v166l-45 -1q-59 -2 -87 -24t-28 -88
t18.5 -87.5t56.5 -21.5q40 0 85 56z" />
    <glyph glyph-name="b" unicode="b" horiz-adv-x="480" 
d="M430 268q0 -71 -13 -123.5t-32 -81.5t-48 -46t-53.5 -22t-55.5 -5q-30 0 -67 6t-59 12l-22 6v706h80v-227q57 47 110 47q24 0 43.5 -5t42.5 -21.5t38 -45t25.5 -79.5t10.5 -121zM350 268q0 59 -6 99t-13.5 60.5t-23 31t-26.5 12.5t-31 2q-19 0 -41.5 -9.5t-35.5 -18.5
l-13 -9v-373q42 -9 71 -9q18 0 32 3t31.5 15.5t28.5 34.5t19 63t8 98z" />
    <glyph glyph-name="c" unicode="c" horiz-adv-x="340" 
d="M320 11q-51 -21 -97 -21q-24 0 -44 4t-45.5 20.5t-42.5 44t-29 80t-12 123.5t13.5 124t33 81.5t47 46t49 22t45.5 4.5q23 0 43.5 -5t29.5 -9l9 -5v-68q-42 19 -89 19q-101 0 -101 -210q0 -106 26.5 -154t66.5 -48q22 0 46 5.5t37 10.5l14 6v-71z" />
    <glyph glyph-name="d" unicode="d" horiz-adv-x="490" 
d="M410 0h-58l-11 47q-51 -57 -126 -57q-165 0 -165 275q0 70 14 122.5t33.5 80.5t46.5 45.5t48 22t43 4.5q59 0 95 -40v220h80v-720zM330 97v345q-37 31 -85 31q-115 0 -115 -208q0 -209 105 -209q30 0 56.5 14.5t38.5 26.5z" />
    <glyph glyph-name="e" unicode="e" horiz-adv-x="421" 
d="M380 265l-1 -23h-250q0 -59 9.5 -98.5t26.5 -56.5t33 -22.5t37 -5.5q16 0 44 4.5t48 9.5l20 5v-70q-62 -18 -112 -18q-24 0 -43.5 3.5t-42 13t-39 29t-31 48t-22 73.5t-7.5 103q0 152 49.5 216t127.5 64q165 0 153 -275zM303 294q0 103 -19 145.5t-57 42.5
q-49 0 -72 -45.5t-25 -142.5h173z" />
    <glyph glyph-name="f" unicode="f" horiz-adv-x="260" 
d="M290 652q-53 14 -88 14q-52 0 -52 -69v-67h90l-10 -61h-80v-469h-80v469h-60v61h60v65q0 135 129 135q23 0 45.5 -4t33.5 -8l12 -4v-62z" />
    <glyph glyph-name="g" unicode="g" horiz-adv-x="424" 
d="M414 472h-90q37 -44 37 -110q0 -180 -156 -180q-15 0 -29 3t-21 5l-7 3q-32 -21 -32 -47q0 -21 13.5 -31t42.5 -13l81 -8q151 -14 151 -137q0 -83 -52 -120t-159 -37q-74 0 -118.5 32.5t-44.5 98.5q0 64 62 120q-42 24 -42 74q0 54 57 91q-59 47 -59 146q0 89 43 133.5
t114 44.5q16 0 37.5 -5t35.5 -5h136v-58zM284 362q0 64 -19 94t-60 30q-79 0 -79 -124q0 -125 79 -125q42 0 60.5 30t18.5 95zM329 -48q0 39 -21 53.5t-65 18.5l-80 8l-22 3q-39 -39 -39 -94q0 -39 23 -62.5t68 -23.5q77 0 106.5 23.5t29.5 73.5z" />
    <glyph glyph-name="h" unicode="h" horiz-adv-x="505" 
d="M430 0h-80v396q0 42 -11 57t-44 15q-27 0 -60.5 -12t-54.5 -24l-20 -11v-421h-80v720h80v-249q8 8 23 19.5t55.5 30.5t75.5 19q116 0 116 -138v-402z" />
    <glyph glyph-name="i" unicode="i" horiz-adv-x="220" 
d="M164 670q0 -23 -16 -39t-38 -16t-38 16t-16 39t16 39t38 16t38 -16t16 -39zM150 0h-80v530h80v-530z" />
    <glyph glyph-name="j" unicode="j" horiz-adv-x="220" 
d="M164 670q0 -23 -16 -39t-38 -16t-38 16t-16 39t16 39t38 16t38 -16t16 -39zM150 -71q0 -129 -112 -129q-16 0 -35.5 3t-30.5 7l-12 3v69q42 -11 67 -11q43 0 43 52v607h80v-601z" />
    <glyph glyph-name="k" unicode="k" horiz-adv-x="425" 
d="M420 0l-95 -10l-144 320l120 220h99l-139 -219zM160 0h-80v720h80v-720z" />
    <glyph glyph-name="l" unicode="l" horiz-adv-x="230" 
d="M155 0h-80v720h80v-720z" />
    <glyph glyph-name="m" unicode="m" horiz-adv-x="715" 
d="M640 0h-80v406q0 36 -11 49.5t-39 13.5q-22 0 -49.5 -10.5t-44.5 -20.5l-16 -11v-427h-80v406q0 36 -11 49.5t-39 13.5q-22 0 -49.5 -10.5t-44.5 -20.5l-16 -11v-427h-80v530h57l20 -54q7 7 20 17.5t49 28.5t67 18q80 0 99 -67q73 67 141 67q57 0 82 -32.5t25 -100.5
v-407z" />
    <glyph glyph-name="n" unicode="n" horiz-adv-x="505" 
d="M430 0h-80v396q0 39 -12 55.5t-43 16.5q-27 0 -60.5 -11t-54.5 -21l-20 -11v-425h-80v530h57l20 -55l24 18t56 29t76 18q117 0 117 -138v-402z" />
    <glyph glyph-name="o" unicode="o" horiz-adv-x="454" 
d="M414 265q0 -82 -15.5 -138.5t-43 -85t-58.5 -40t-70 -11.5t-70 12t-58.5 40.5t-43 85t-15.5 137.5q0 275 187 275t187 -275zM334 265q0 123 -29 168.5t-78 45.5q-107 0 -107 -214q0 -118 32 -165.5t75 -47.5t75 48t32 165z" />
    <glyph glyph-name="p" unicode="p" horiz-adv-x="480" 
d="M430 268q0 -71 -13 -124.5t-32 -82t-46 -45.5t-48.5 -21.5t-45.5 -4.5q-22 0 -43.5 5.5t-31.5 10.5l-10 6v-202h-80v720h59l13 -48q46 58 118 58q25 0 45.5 -5.5t43 -22.5t37.5 -46t24.5 -79.5t9.5 -118.5zM350 268q0 67 -7 110t-22 63t-31 26.5t-40 6.5q-43 0 -90 -44
v-358q42 -18 73 -18q23 0 41 7.5t36.5 28t29 65.5t10.5 113z" />
    <glyph glyph-name="q" unicode="q" horiz-adv-x="490" 
d="M410 -190h-80v215q-52 -35 -100 -35q-180 0 -180 278q0 82 18 139.5t47.5 84.5t57 37.5t57.5 10.5q73 0 110 -57l15 47h55v-720zM330 83v345q-4 5 -11.5 12.5t-29.5 20t-44 12.5q-26 0 -45 -8.5t-36 -29.5t-25.5 -63t-8.5 -104q0 -124 30.5 -168.5t84.5 -44.5q29 0 85 28
z" />
    <glyph glyph-name="r" unicode="r" horiz-adv-x="288" 
d="M278 448q-32 8 -55 8q-17 0 -32.5 -8t-22.5 -16l-8 -7v-425h-80v530h59l13 -56q1 3 3 7.5t9.5 15.5t17 20t26.5 16t36 7l34 -6v-86z" />
    <glyph glyph-name="s" unicode="s" horiz-adv-x="324" 
d="M289 140q0 -150 -160 -150q-19 0 -41.5 4.5t-35.5 9.5l-14 4v71q58 -21 91 -21q84 0 84 82q0 32 -13.5 51t-42.5 40l-38 28q-35 26 -54.5 56.5t-19.5 80.5q0 67 40 105.5t104 38.5q24 0 46.5 -5t32.5 -9l11 -5v-67q-41 19 -87 19q-34 0 -53 -19.5t-19 -54.5
q0 -29 12.5 -46t38.5 -37l44 -33q74 -55 74 -143z" />
    <glyph glyph-name="t" unicode="t" horiz-adv-x="270" 
d="M260 5q-44 -15 -80 -15q-51 0 -80.5 24t-29.5 89v366h-60v61h60l4 120l76 40v-160h90l-10 -61h-80v-367q0 -26 10 -35t31 -9q8 0 25.5 3t30.5 7l13 3v-66z" />
    <glyph glyph-name="u" unicode="u" horiz-adv-x="495" 
d="M415 0h-63l-11 51q-64 -61 -131 -61q-135 0 -135 145v395h80v-385q0 -48 15.5 -66t49.5 -18q46 0 115 48v421h80v-530z" />
    <glyph glyph-name="v" unicode="v" horiz-adv-x="410" 
d="M405 530l-153 -530h-94l-153 530h92l79 -340l29 -147q13 78 29 147l79 340h92z" />
    <glyph glyph-name="w" unicode="w" horiz-adv-x="690" 
d="M670 530l-116 -530h-100l-67 281l-42 196q-24 -115 -43 -195l-67 -282h-99l-116 530h93l47 -304l24 -184q17 110 35 184l75 304h103l74 -304q9 -39 18 -85t13 -73l4 -26q13 114 24 184l49 304h91z" />
    <glyph glyph-name="x" unicode="x" horiz-adv-x="430" 
d="M425 0h-103l-107 229l-107 -229h-103l162 285l-152 245h105l95 -199l95 199h105l-153 -245z" />
    <glyph glyph-name="y" unicode="y" horiz-adv-x="395" 
d="M390 530l-164 -625q-27 -105 -129 -105q-15 0 -34 3t-31 6l-11 3v66q51 -11 69 -11q27 0 43 12t25 50l15 62l-168 539h95l107 -443l94 443h89z" />
    <glyph glyph-name="z" unicode="z" horiz-adv-x="363" 
d="M325 0h-285v55l201 408h-201v67h285v-55l-201 -408h201v-67z" />
    <glyph glyph-name="braceleft" unicode="{" horiz-adv-x="333" 
d="M313 -150h-7q-101 0 -147 47.5t-46 155.5v129q0 31 -9.5 54.5t-23.5 34.5t-27.5 17t-22.5 7l-10 1v70q4 0 10 1.5t22 8t28.5 17.5t22.5 34t10 53v127q0 108 46 155.5t147 47.5h7v-68h-17q-58 0 -80.5 -33t-22.5 -105v-119q0 -62 -30.5 -101.5t-76.5 -53.5
q48 -12 77.5 -51.5t29.5 -101.5v-121q0 -72 22.5 -105t80.5 -33h17v-68z" />
    <glyph glyph-name="bar" unicode="|" horiz-adv-x="240" 
d="M160 -110h-80v920h80v-920z" />
    <glyph glyph-name="braceright" unicode="}" horiz-adv-x="333" 
d="M313 296q-4 0 -10 -1t-22 -7t-28.5 -17t-22.5 -34.5t-10 -54.5v-129q0 -108 -46 -155.5t-147 -47.5h-7v68h17q58 0 80.5 33t22.5 105v121q0 62 29.5 101.5t77.5 51.5q-46 14 -76.5 53.5t-30.5 101.5v119q0 72 -22.5 105t-80.5 33h-17v68h7q101 0 147 -47.5t46 -155.5
v-127q0 -30 9.5 -52.5t23 -34t27.5 -18t24 -7.5l9 -2v-70z" />
    <glyph glyph-name="asciitilde" unicode="~" horiz-adv-x="620" 
d="M550 300q-47 -38 -118 -38q-40 0 -115 33.5t-115 33.5q-32 0 -65 -9.5t-50 -19.5l-17 -10v79q60 40 133 40q50 0 124 -34t107 -34q24 0 53 9.5t46 19.5l17 9v-79z" />
    <glyph glyph-name="exclamdown" unicode="&#xa1;" horiz-adv-x="291" 
d="M211 472q0 -28 -19 -47.5t-47 -19.5t-46.5 19.5t-18.5 47.5q0 29 18.5 48.5t46.5 19.5t47 -20t19 -48zM193 -170h-96l15 460h66z" />
    <glyph glyph-name="cent" unicode="&#xa2;" horiz-adv-x="340" 
d="M320 9q-30 -11 -65 -16v-103h-70v103q-135 26 -135 269q0 233 135 271v107h70v-101q18 -1 34.5 -5.5t23.5 -8.5l7 -4v-68q-42 19 -89 19q-101 0 -101 -210q0 -105 27.5 -153.5t65.5 -48.5q22 0 46 5t37 10l14 5v-71z" />
    <glyph glyph-name="sterling" unicode="&#xa3;" horiz-adv-x="399" 
d="M379 0h-359v71h90v269h-90v66h90v94q0 51 15 87t40.5 53t50 23.5t51.5 6.5q28 0 56 -5t42 -11l14 -5v-66q-62 19 -112 19q-38 0 -58.5 -20t-20.5 -82v-94h141l-10 -66h-131v-269h191v-71z" />
    <glyph glyph-name="currency" unicode="&#xa4;" 
d="M450 19q-62 -29 -122 -29q-36 0 -64.5 7t-61 28.5t-57 68.5t-36.5 119h-89l8 68h73q-1 29 -1 49l5 64h-83l8 68h84q11 62 37.5 106t61 64.5t64.5 29t61 8.5q30 0 58 -6t41 -12l13 -6v-69q-52 24 -112 24q-120 0 -147 -139h209l-8 -68h-207q-5 -38 -5 -64l1 -49h217
l-8 -68h-202q26 -154 140 -154q23 0 53.5 7.5t49.5 15.5l19 7v-70z" />
    <glyph glyph-name="yen" unicode="&#xa5;" horiz-adv-x="400" 
d="M397 660l-127 -297h95v-74h-125v-87h125v-74h-125v-128h-80v128h-125v74h125v87h-125v74h95l-127 297h98l99 -303l99 303h98z" />
    <glyph glyph-name="brokenbar" unicode="&#xa6;" horiz-adv-x="240" 
d="M160 420h-80v390h80v-390zM160 -110h-80v390h80v-390z" />
    <glyph glyph-name="section" unicode="&#xa7;" horiz-adv-x="410" 
d="M360 279q0 -36 -24.5 -68t-55.5 -50q62 -46 62 -115q0 -70 -43 -109t-121 -39q-24 0 -54 5t-48 9l-18 5v69q78 -24 117 -24q41 0 65 21.5t24 57.5q0 32 -15 52t-45 36l-55 30q-28 16 -45 27.5t-35.5 39.5t-18.5 63q0 62 81 115q-63 41 -63 118q0 75 44 111.5t120 36.5
q30 0 60 -6.5t45 -13.5l15 -6v-65q-62 26 -117 26q-89 0 -89 -78q0 -12 2 -21.5t7 -18t9 -14t13 -12t13 -9l15 -9t14 -8.5l42 -26q32 -20 49.5 -33.5t33.5 -39.5t16 -57zM280 275q0 47 -52 76l-50 27q-48 -38 -48 -85q0 -48 52 -75l56 -29q42 38 42 86z" />
    <glyph glyph-name="dieresis" unicode="&#xa8;" horiz-adv-x="337" 
d="M307 675q0 -23 -16 -39t-38 -16t-38 16t-16 39t16 39t38 16t38 -16t16 -39zM138 675q0 -23 -16 -39t-38 -16t-38 16t-16 39t16 39t38 16t38 -16t16 -39z" />
    <glyph glyph-name="copyright" unicode="&#xa9;" horiz-adv-x="730" 
d="M680 315q0 -164 -87.5 -259.5t-227.5 -95.5q-145 0 -230 93.5t-85 261.5q0 164 87 259.5t228 95.5q143 0 229 -95.5t86 -259.5zM610 315q0 136 -62.5 213t-182.5 77t-182.5 -76.5t-62.5 -213.5t62.5 -213.5t182.5 -76.5t182.5 77t62.5 213zM461 134q-35 -16 -85 -16
q-22 0 -42 4.5t-41.5 17.5t-37.5 34.5t-26 58t-10 84.5q0 49 12 86.5t29.5 57.5t41 33t42.5 16.5t39 3.5q21 0 40.5 -4t28.5 -8l9 -4v-56q-38 15 -78 15q-18 0 -31 -4t-28 -17t-22.5 -43t-7.5 -76q0 -138 82 -138q18 0 39.5 3.5t33.5 7.5l12 3v-59z" />
    <glyph glyph-name="ordfeminine" unicode="&#xaa;" horiz-adv-x="328" 
d="M288 259h-66l-9 39q-4 -5 -11 -13t-27 -21t-40 -13q-115 0 -115 143q0 41 15 70.5t39 43t46 19t45 5.5h46v58q0 37 -10 47t-39 10q-22 0 -49.5 -4.5t-43.5 -8.5l-16 -5v61q56 20 121 20q23 0 39.5 -3.5t35.5 -14.5t29 -36t10 -64v-333zM288 0h-268v75h268v-75zM211 355
v128l-28 -1q-21 -1 -33 -3.5t-26 -10.5t-20.5 -26t-6.5 -46q0 -48 12.5 -65.5t40.5 -17.5q15 0 30.5 10.5t23.5 20.5z" />
    <glyph glyph-name="guillemotleft" unicode="&#xab;" 
d="M420 110l-180 215v20l180 215v-124l-95 -99l95 -103v-124zM220 110l-180 215v20l180 215v-124l-95 -99l95 -103v-124z" />
    <glyph glyph-name="logicalnot" unicode="&#xac;" horiz-adv-x="600" 
d="M530 129h-80v171h-380v80h460v-251z" />
    <glyph glyph-name="registered" unicode="&#xae;" horiz-adv-x="730" 
d="M680 315q0 -164 -87.5 -259.5t-227.5 -95.5q-145 0 -230 93.5t-85 261.5q0 164 87 259.5t228 95.5q143 0 229 -95.5t86 -259.5zM610 315q0 136 -62.5 213t-182.5 77t-182.5 -76.5t-62.5 -213.5t62.5 -213.5t182.5 -76.5t182.5 77t62.5 213zM504 137h-83l-16 60
q-18 67 -45 89l-37 -2v-147h-70v370h91q33 0 56.5 -4t46.5 -14.5t35 -33.5t12 -57q0 -65 -72 -96q30 -27 53 -88zM423 398q0 36 -16 47t-62 11h-22v-126q60 3 80 17.5t20 50.5z" />
    <glyph glyph-name="macron" unicode="&#xaf;" horiz-adv-x="335" 
d="M305 655h-275v80h275v-80z" />
    <glyph glyph-name="degree" unicode="&#xb0;" horiz-adv-x="374" 
d="M334 535q0 -91 -40.5 -133t-106.5 -42q-65 0 -106 41t-41 134q0 90 42 132.5t105 42.5q65 0 106 -41t41 -134zM264 535q0 123 -77 123t-77 -123q0 -120 77 -120t77 120z" />
    <glyph glyph-name="plusminus" unicode="&#xb1;" horiz-adv-x="550" 
d="M480 310h-165v-150h-80v150h-165v80h165v170h80v-170h165v-80zM480 0h-410v80h410v-80z" />
    <glyph glyph-name="twosuperior" unicode="&#xb2;" horiz-adv-x="294" 
d="M259 339l-9 -61h-209v54l90 122q21 28 29.5 41t17 37.5t8.5 50.5q0 39 -14.5 53.5t-46.5 14.5q-14 0 -34.5 -4t-34.5 -8l-14 -4v56q37 19 87 19q125 0 125 -128q0 -32 -10.5 -62t-22.5 -49t-36 -50l-63 -82h137z" />
    <glyph glyph-name="threesuperior" unicode="&#xb3;" horiz-adv-x="294" 
d="M259 403q0 -135 -131 -135q-18 0 -38 3t-32 7l-11 3v56q48 -13 77 -13q37 0 52 17.5t15 61.5q0 42 -20.5 57t-58.5 15h-41v55h41q29 0 49 16.5t20 52.5q0 32 -13 43.5t-38 11.5q-16 0 -36.5 -4t-33.5 -8l-13 -5v55q36 18 87 18q115 0 115 -108q0 -74 -65 -95
q75 -22 75 -104z" />
    <glyph glyph-name="acute" unicode="&#xb4;" horiz-adv-x="266" 
d="M236 770l-124 -150h-82l98 150h108z" />
    <glyph glyph-name="mu" unicode="&#xb5;" horiz-adv-x="500" 
d="M420 0h-63l-11 51q-64 -61 -131 -61q-31 0 -55 7v-187h-80v720h80v-385q0 -48 15.5 -66t49.5 -18q46 0 115 48v421h80v-530z" />
    <glyph glyph-name="paragraph" unicode="&#xb6;" horiz-adv-x="530" 
d="M450 0h-70v700h70v-700zM310 0h-70v224q-86 0 -138 56t-52 180q0 134 55.5 187t154.5 53h50v-700zM240 284v348q-57 0 -83.5 -36t-26.5 -136q0 -94 26 -135t84 -41z" />
    <glyph glyph-name="periodcentered" unicode="&#xb7;" horiz-adv-x="291" 
d="M211 378q0 -29 -18.5 -48.5t-46.5 -19.5t-47 20t-19 48t19 47.5t47 19.5t46.5 -19.5t18.5 -47.5z" />
    <glyph glyph-name="cedilla" unicode="&#xb8;" horiz-adv-x="244" 
d="M214 -90q0 -54 -31.5 -77t-74.5 -23q-17 0 -36.5 4t-30.5 8l-11 5v62q40 -16 69 -16q43 0 43 45q0 19 -6 42t-12 36l-6 14h52q44 -44 44 -100z" />
    <glyph glyph-name="onesuperior" unicode="&#xb9;" horiz-adv-x="294" 
d="M193 278h-68v348l-84 -35v60l104 49h48v-422z" />
    <glyph glyph-name="ordmasculine" unicode="&#xba;" horiz-adv-x="393" 
d="M353 479q0 -230 -156 -230q-157 0 -157 230q0 123 44.5 177t112.5 54q156 0 156 -231zM353 0h-313v75h313v-75zM276 479q0 104 -19.5 137t-59.5 33q-39 0 -59.5 -35t-20.5 -135q0 -99 22.5 -133.5t57.5 -34.5t57 35t22 133z" />
    <glyph glyph-name="guillemotright" unicode="&#xbb;" 
d="M430 325l-180 -215v124l95 103l-95 99v124l180 -215v-20zM230 325l-180 -215v124l95 103l-95 99v124l180 -215v-20z" />
    <glyph glyph-name="onequarter" unicode="&#xbc;" horiz-adv-x="778" 
d="M773 154l-9 -62h-52v-92h-68v92h-147v46l53 284h74l-54 -268h75l8 148h59v-148h61zM604 810l-360 -920h-70l360 920h70zM193 278h-68v348l-84 -35v60l104 49h48v-422z" />
    <glyph glyph-name="onehalf" unicode="&#xbd;" horiz-adv-x="778" 
d="M743 61l-9 -61h-209v54l90 122q21 28 29.5 41t17 37.5t8.5 50.5q0 39 -14.5 53.5t-46.5 14.5q-14 0 -34.5 -4t-34.5 -8l-14 -4v56q37 19 87 19q125 0 125 -128q0 -46 -17 -81t-52 -80l-63 -82h137zM604 810l-360 -920h-70l360 920h70zM193 278h-68v348l-84 -35v60l104 49
h48v-422z" />
    <glyph glyph-name="threequarters" unicode="&#xbe;" horiz-adv-x="778" 
d="M773 154l-9 -62h-52v-92h-68v92h-147v46l53 284h74l-54 -268h75l8 148h59v-148h61zM604 810l-360 -920h-70l360 920h70zM259 403q0 -135 -131 -135q-18 0 -38 3t-32 7l-11 3v56q48 -13 77 -13q37 0 52 17.5t15 61.5q0 42 -20.5 57t-58.5 15h-41v55h41q29 0 49 16.5
t20 52.5q0 32 -13 43.5t-38 11.5q-16 0 -36.5 -4t-33.5 -8l-13 -5v55q36 18 87 18q115 0 115 -108q0 -74 -65 -95q75 -22 75 -104z" />
    <glyph glyph-name="questiondown" unicode="&#xbf;" horiz-adv-x="338" 
d="M254 472q0 -28 -19 -47.5t-47 -19.5t-46.5 19.5t-18.5 47.5q0 29 18.5 48.5t46.5 19.5t47 -20t19 -48zM283 -156q-43 -24 -102 -24q-62 0 -96.5 28.5t-34.5 99.5q0 18 3 34.5t6 26.5t11.5 24t12 19t15 19.5t14.5 17.5q17 22 25.5 35t16.5 39.5t8 59.5q0 32 -7 67h74
q5 -38 5 -62q0 -60 -16.5 -98t-45.5 -75q-44 -56 -44 -105q0 -33 16 -46.5t47 -13.5q18 0 41 5t37 10l14 5v-66z" />
    <glyph glyph-name="Agrave" unicode="&#xc0;" horiz-adv-x="460" 
d="M268 750h-82l-124 120h113zM450 0h-88l-35 166h-194l-35 -166h-88l173 700h94zM314 234l-53 254l-31 165q-17 -97 -31 -165l-53 -254h168z" />
    <glyph glyph-name="Aacute" unicode="&#xc1;" horiz-adv-x="460" 
d="M396 870l-124 -120h-82l93 120h113zM450 0h-88l-35 166h-194l-35 -166h-88l173 700h94zM314 234l-53 254l-31 165q-17 -97 -31 -165l-53 -254h168z" />
    <glyph glyph-name="Acircumflex" unicode="&#xc2;" horiz-adv-x="460" 
d="M403 750h-102l-71 67l-71 -67h-102l138 120h70zM450 0h-88l-35 166h-194l-35 -166h-88l173 700h94zM314 234l-53 254l-31 165q-17 -97 -31 -165l-53 -254h168z" />
    <glyph glyph-name="Atilde" unicode="&#xc3;" horiz-adv-x="460" 
d="M380 795q-41 -26 -73 -26q-31 0 -77 18t-70 18q-34 0 -80 -30v80q48 28 87 28q32 0 77 -17t67 -17q27 0 69 25v-79zM450 0h-88l-35 166h-194l-35 -166h-88l173 700h94zM314 234l-53 254l-31 165q-17 -97 -31 -165l-53 -254h168z" />
    <glyph glyph-name="Adieresis" unicode="&#xc4;" horiz-adv-x="460" 
d="M369 805q0 -23 -16 -39t-38 -16t-38 16t-16 39t16 39t38 16t38 -16t16 -39zM200 805q0 -23 -16 -39t-38 -16t-38 16t-16 39t16 39t38 16t38 -16t16 -39zM450 0h-88l-35 166h-194l-35 -166h-88l173 700h94zM314 234l-53 254l-31 165q-17 -97 -31 -165l-53 -254h168z" />
    <glyph glyph-name="Aring" unicode="&#xc5;" horiz-adv-x="460" 
d="M348 813q0 -53 -32.5 -77.5t-85.5 -24.5q-118 0 -118 102q0 53 32.5 77.5t85.5 24.5q50 0 84 -25t34 -77zM450 0h-88l-35 166h-194l-35 -166h-88l173 700h94zM288 813q0 55 -58 55t-58 -55t58 -55t58 55zM314 234l-53 254l-31 165q-17 -97 -31 -165l-53 -254h168z" />
    <glyph glyph-name="AE" unicode="&#xc6;" horiz-adv-x="569" 
d="M539 0h-260v166h-135l-47 -166h-92l229 700h305v-74h-180v-216h170v-68h-170v-268h180v-74zM279 234v420l-44 -166l-72 -254h116z" />
    <glyph glyph-name="Ccedilla" unicode="&#xc7;" horiz-adv-x="360" 
d="M340 10q-46 -17 -91 -20q28 -39 28 -80q0 -54 -31.5 -77t-74.5 -23q-17 0 -36.5 4t-30.5 8l-11 5v62q40 -16 69 -16q43 0 43 45q0 32 -18 78q-137 39 -137 354q0 89 13.5 156t33.5 105t48.5 61t53 30.5t52.5 7.5q26 0 48 -5t31 -10l10 -5v-69q-37 20 -92 20
q-50 0 -84 -67t-34 -224q0 -289 108 -289q20 0 45.5 5.5t40.5 10.5l16 5v-72z" />
    <glyph glyph-name="Egrave" unicode="&#xc8;" horiz-adv-x="390" 
d="M276 750h-82l-124 120h113zM360 0h-280v700h280v-73h-200v-217h180v-68h-180v-269h200v-73z" />
    <glyph glyph-name="Eacute" unicode="&#xc9;" horiz-adv-x="390" 
d="M376 870l-124 -120h-82l93 120h113zM360 0h-280v700h280v-73h-200v-217h180v-68h-180v-269h200v-73z" />
    <glyph glyph-name="Ecircumflex" unicode="&#xca;" horiz-adv-x="390" 
d="M386 750h-102l-71 67l-71 -67h-102l138 120h70zM360 0h-280v700h280v-73h-200v-217h180v-68h-180v-269h200v-73z" />
    <glyph glyph-name="Edieresis" unicode="&#xcb;" horiz-adv-x="390" 
d="M357 805q0 -23 -16 -39t-38 -16t-38 16t-16 39t16 39t38 16t38 -16t16 -39zM188 805q0 -23 -16 -39t-38 -16t-38 16t-16 39t16 39t38 16t38 -16t16 -39zM360 0h-280v700h280v-73h-200v-217h180v-68h-180v-269h200v-73z" />
    <glyph glyph-name="Igrave" unicode="&#xcc;" horiz-adv-x="242" 
d="M162 750h-82l-124 120h113zM162 0h-82v700h82v-700z" />
    <glyph glyph-name="Iacute" unicode="&#xcd;" horiz-adv-x="242" 
d="M285 870l-124 -120h-82l93 120h113zM162 0h-82v700h82v-700z" />
    <glyph glyph-name="Icircumflex" unicode="&#xce;" horiz-adv-x="242" 
d="M294 750h-102l-71 67l-71 -67h-102l138 120h70zM162 0h-82v700h82v-700z" />
    <glyph glyph-name="Idieresis" unicode="&#xcf;" horiz-adv-x="242" 
d="M250 805q0 -23 -16 -39t-38 -16t-38 16t-16 39t16 39t38 16t38 -16t16 -39zM101 805q0 -23 -16 -39t-38 -16t-38 16t-16 39t16 39t38 16t38 -16t16 -39zM162 0h-82v700h82v-700z" />
    <glyph glyph-name="Eth" unicode="&#xd0;" horiz-adv-x="490" 
d="M440 350q0 -88 -12.5 -151.5t-33.5 -101.5t-55 -60t-69 -29.5t-83 -7.5h-107v342h-60v68h60v290h102q47 0 80.5 -6t69 -27.5t58 -58.5t36.5 -102t14 -156zM360 350q0 113 -20.5 176t-54 84t-89.5 21h-36v-221h100v-68h-100v-273h33q60 0 94.5 21t53.5 83.5t19 176.5z" />
    <glyph glyph-name="Ntilde" unicode="&#xd1;" horiz-adv-x="520" 
d="M410 795q-41 -26 -73 -26q-31 0 -77 18t-70 18q-34 0 -80 -30v80q48 28 87 28q32 0 77 -17t67 -17q27 0 69 25v-79zM440 0h-69l-155 377l-68 182q12 -107 12 -200v-359h-80v700h74l152 -362q16 -37 32.5 -84.5t25.5 -76.5l8 -29q-12 120 -12 208v344h80v-700z" />
    <glyph glyph-name="Ograve" unicode="&#xd2;" 
d="M286 750h-82l-124 120h113zM430 350q0 -91 -12 -158.5t-30.5 -105.5t-45.5 -60.5t-51.5 -29t-55.5 -6.5t-55.5 6.5t-52 28.5t-45.5 60t-30 105.5t-12 159.5q0 91 12.5 158.5t31.5 105.5t46.5 60.5t51.5 29t53 6.5q38 0 68 -12.5t61 -47.5t48.5 -111t17.5 -189zM350 350
q0 300 -115 300t-115 -300q0 -163 33 -231.5t82 -68.5t82 68.5t33 231.5z" />
    <glyph glyph-name="Oacute" unicode="&#xd3;" 
d="M386 870l-124 -120h-82l93 120h113zM430 350q0 -91 -12 -158.5t-30.5 -105.5t-45.5 -60.5t-51.5 -29t-55.5 -6.5t-55.5 6.5t-52 28.5t-45.5 60t-30 105.5t-12 159.5q0 91 12.5 158.5t31.5 105.5t46.5 60.5t51.5 29t53 6.5q38 0 68 -12.5t61 -47.5t48.5 -111t17.5 -189z
M350 350q0 300 -115 300t-115 -300q0 -163 33 -231.5t82 -68.5t82 68.5t33 231.5z" />
    <glyph glyph-name="Ocircumflex" unicode="&#xd4;" 
d="M408 750h-102l-71 67l-71 -67h-102l138 120h70zM430 350q0 -91 -12 -158.5t-30.5 -105.5t-45.5 -60.5t-51.5 -29t-55.5 -6.5t-55.5 6.5t-52 28.5t-45.5 60t-30 105.5t-12 159.5q0 91 12.5 158.5t31.5 105.5t46.5 60.5t51.5 29t53 6.5q38 0 68 -12.5t61 -47.5t48.5 -111
t17.5 -189zM350 350q0 300 -115 300t-115 -300q0 -163 33 -231.5t82 -68.5t82 68.5t33 231.5z" />
    <glyph glyph-name="Otilde" unicode="&#xd5;" 
d="M385 795q-41 -26 -73 -26q-31 0 -77 18t-70 18q-33 0 -80 -30v80q48 28 87 28q32 0 77 -17t67 -17q27 0 69 25v-79zM430 350q0 -91 -12 -158.5t-30.5 -105.5t-45.5 -60.5t-51.5 -29t-55.5 -6.5t-55.5 6.5t-52 28.5t-45.5 60t-30 105.5t-12 159.5q0 91 12.5 158.5
t31.5 105.5t46.5 60.5t51.5 29t53 6.5q38 0 68 -12.5t61 -47.5t48.5 -111t17.5 -189zM350 350q0 300 -115 300t-115 -300q0 -163 33 -231.5t82 -68.5t82 68.5t33 231.5z" />
    <glyph glyph-name="Odieresis" unicode="&#xd6;" 
d="M374 805q0 -23 -16 -39t-38 -16t-38 16t-16 39t16 39t38 16t38 -16t16 -39zM205 805q0 -23 -16 -39t-38 -16t-38 16t-16 39t16 39t38 16t38 -16t16 -39zM430 350q0 -91 -12 -158.5t-30.5 -105.5t-45.5 -60.5t-51.5 -29t-55.5 -6.5t-55.5 6.5t-52 28.5t-45.5 60t-30 105.5
t-12 159.5q0 91 12.5 158.5t31.5 105.5t46.5 60.5t51.5 29t53 6.5q38 0 68 -12.5t61 -47.5t48.5 -111t17.5 -189zM350 350q0 300 -115 300t-115 -300q0 -163 33 -231.5t82 -68.5t82 68.5t33 231.5z" />
    <glyph glyph-name="multiply" unicode="&#xd7;" horiz-adv-x="516" 
d="M439 459l-124 -124l123 -123l-57 -57l-123 123l-124 -124l-57 57l124 124l-121 121l57 57l121 -121l124 124z" />
    <glyph glyph-name="Oslash" unicode="&#xd8;" 
d="M430 350q0 -91 -12 -158.5t-30.5 -105.5t-45.5 -60.5t-51.5 -29t-55.5 -6.5q-52 0 -87 20l-41 -120h-62l56 163q-61 86 -61 297q0 92 12.5 160t31 105.5t46.5 59.5t52 28.5t53 6.5q50 0 86 -22l42 122h62l-57 -166q62 -85 62 -294zM297 619q-25 31 -62 31
q-25 0 -44.5 -13.5t-36 -45.5t-25.5 -92.5t-9 -148.5q0 -118 19 -189zM350 350q0 121 -18 190l-158 -457q26 -33 61 -33q49 0 82 68.5t33 231.5z" />
    <glyph glyph-name="Ugrave" unicode="&#xd9;" horiz-adv-x="496" 
d="M296 750h-82l-124 120h113zM421 180q0 -100 -43.5 -145t-129.5 -45q-89 0 -131 43.5t-42 146.5v520h80v-535q0 -58 22.5 -84t70.5 -26q93 0 93 110v535h80v-520z" />
    <glyph glyph-name="Uacute" unicode="&#xda;" horiz-adv-x="496" 
d="M406 870l-124 -120h-82l93 120h113zM421 180q0 -100 -43.5 -145t-129.5 -45q-89 0 -131 43.5t-42 146.5v520h80v-535q0 -58 22.5 -84t70.5 -26q93 0 93 110v535h80v-520z" />
    <glyph glyph-name="Ucircumflex" unicode="&#xdb;" horiz-adv-x="496" 
d="M421 750h-102l-71 67l-71 -67h-102l138 120h70zM421 180q0 -100 -43.5 -145t-129.5 -45q-89 0 -131 43.5t-42 146.5v520h80v-535q0 -58 22.5 -84t70.5 -26q93 0 93 110v535h80v-520z" />
    <glyph glyph-name="Udieresis" unicode="&#xdc;" horiz-adv-x="496" 
d="M387 805q0 -23 -16 -39t-38 -16t-38 16t-16 39t16 39t38 16t38 -16t16 -39zM218 805q0 -23 -16 -39t-38 -16t-38 16t-16 39t16 39t38 16t38 -16t16 -39zM421 180q0 -100 -43.5 -145t-129.5 -45q-89 0 -131 43.5t-42 146.5v520h80v-535q0 -58 22.5 -84t70.5 -26
q93 0 93 110v535h80v-520z" />
    <glyph glyph-name="Yacute" unicode="&#xdd;" horiz-adv-x="400" 
d="M356 870l-124 -120h-82l93 120h113zM410 700l-170 -412v-288h-80v288l-170 412h98l112 -342l112 342h98z" />
    <glyph glyph-name="Thorn" unicode="&#xde;" horiz-adv-x="440" 
d="M410 360q0 -121 -62 -175t-188 -58v-127h-80v700h80v-100h27q121 0 172 -57t51 -183zM330 360q0 102 -31.5 137t-107.5 35h-31v-346q97 4 133.5 44t36.5 130z" />
    <glyph glyph-name="germandbls" unicode="&#xdf;" horiz-adv-x="504" 
d="M474 141q0 -43 -14 -74t-38 -47t-50 -23t-57 -7q-23 0 -49.5 5t-41.5 10l-16 5v70q69 -22 107 -22q81 0 81 83q0 50 -51 85l-49 34q-32 22 -49 47.5t-17 68.5q0 25 9 47.5t17 33.5t26 31q40 46 40 98q0 80 -74 80q-88 0 -88 -121v-545h-80v545q0 93 42.5 139t122.5 46
q75 0 117 -36.5t42 -102.5q0 -31 -11.5 -59t-23 -42.5t-30.5 -33.5q-36 -36 -36 -68q0 -20 8 -31t28 -26l49 -35q86 -61 86 -155z" />
    <glyph glyph-name="agrave" unicode="&#xe0;" horiz-adv-x="440" 
d="M276 620h-82l-124 150h108zM365 0h-67l-10 52q-44 -62 -105 -62q-138 0 -138 171q0 40 12.5 70.5t30.5 48t43 28.5t45.5 14.5t41.5 3.5h67v75q0 43 -15 58t-55 15q-27 0 -59.5 -6t-51.5 -12l-19 -7v66q66 25 144 25q64 0 100 -30.5t36 -118.5v-391zM285 111v166l-45 -1
q-59 -2 -87 -24t-28 -88t18.5 -87.5t56.5 -21.5q40 0 85 56z" />
    <glyph glyph-name="aacute" unicode="&#xe1;" horiz-adv-x="440" 
d="M386 770l-124 -150h-82l98 150h108zM365 0h-67l-10 52q-44 -62 -105 -62q-138 0 -138 171q0 40 12.5 70.5t30.5 48t43 28.5t45.5 14.5t41.5 3.5h67v75q0 43 -15 58t-55 15q-27 0 -59.5 -6t-51.5 -12l-19 -7v66q66 25 144 25q64 0 100 -30.5t36 -118.5v-391zM285 111v166
l-45 -1q-59 -2 -87 -24t-28 -88t18.5 -87.5t56.5 -21.5q40 0 85 56z" />
    <glyph glyph-name="acircumflex" unicode="&#xe2;" horiz-adv-x="440" 
d="M393 620h-102l-71 92l-71 -92h-102l138 150h70zM365 0h-67l-10 52q-44 -62 -105 -62q-138 0 -138 171q0 40 12.5 70.5t30.5 48t43 28.5t45.5 14.5t41.5 3.5h67v75q0 43 -15 58t-55 15q-27 0 -59.5 -6t-51.5 -12l-19 -7v66q66 25 144 25q64 0 100 -30.5t36 -118.5v-391z
M285 111v166l-45 -1q-59 -2 -87 -24t-28 -88t18.5 -87.5t56.5 -21.5q40 0 85 56z" />
    <glyph glyph-name="atilde" unicode="&#xe3;" horiz-adv-x="440" 
d="M360 655q-41 -26 -73 -26q-35 0 -74 26q-45 30 -77 30q-30 0 -76 -30v80q48 28 87 28t83 -28q41 -26 66 -26q22 0 64 25v-79zM365 0h-67l-10 52q-44 -62 -105 -62q-138 0 -138 171q0 40 12.5 70.5t30.5 48t43 28.5t45.5 14.5t41.5 3.5h67v75q0 43 -15 58t-55 15
q-27 0 -59.5 -6t-51.5 -12l-19 -7v66q66 25 144 25q64 0 100 -30.5t36 -118.5v-391zM285 111v166l-45 -1q-59 -2 -87 -24t-28 -88t18.5 -87.5t56.5 -21.5q40 0 85 56z" />
    <glyph glyph-name="adieresis" unicode="&#xe4;" horiz-adv-x="440" 
d="M359 675q0 -23 -16 -39t-38 -16t-38 16t-16 39t16 39t38 16t38 -16t16 -39zM190 675q0 -23 -16 -39t-38 -16t-38 16t-16 39t16 39t38 16t38 -16t16 -39zM365 0h-67l-10 52q-44 -62 -105 -62q-138 0 -138 171q0 40 12.5 70.5t30.5 48t43 28.5t45.5 14.5t41.5 3.5h67v75
q0 43 -15 58t-55 15q-27 0 -59.5 -6t-51.5 -12l-19 -7v66q66 25 144 25q64 0 100 -30.5t36 -118.5v-391zM285 111v166l-45 -1q-59 -2 -87 -24t-28 -88t18.5 -87.5t56.5 -21.5q40 0 85 56z" />
    <glyph glyph-name="aring" unicode="&#xe5;" horiz-adv-x="440" 
d="M344 683q0 -54 -31 -83t-82 -29q-52 0 -82.5 28.5t-30.5 83.5q0 54 31 83t82 29q48 0 80.5 -29.5t32.5 -82.5zM365 0h-67l-10 52q-44 -62 -105 -62q-138 0 -138 171q0 40 12.5 70.5t30.5 48t43 28.5t45.5 14.5t41.5 3.5h67v75q0 43 -15 58t-55 15q-27 0 -59.5 -6
t-51.5 -12l-19 -7v66q66 25 144 25q64 0 100 -30.5t36 -118.5v-391zM284 683q0 63 -53 63t-53 -63t53 -63t53 63zM285 111v166l-45 -1q-59 -2 -87 -24t-28 -88t18.5 -87.5t56.5 -21.5q40 0 85 56z" />
    <glyph glyph-name="ae" unicode="&#xe6;" horiz-adv-x="656" 
d="M615 265l-1 -23h-250q0 -59 9.5 -98.5t26.5 -56.5t33 -22.5t37 -5.5q16 0 44 4.5t48 9.5l20 5v-70q-62 -18 -112 -18q-108 0 -148 84q-23 -37 -58.5 -60.5t-75.5 -23.5q-63 0 -103 36.5t-40 134.5q0 40 12.5 70.5t30.5 48t43 28.5t45.5 14.5t41.5 3.5h67v80
q0 42 -16.5 55t-53.5 13q-27 0 -59.5 -6t-51.5 -12l-19 -7v66q66 25 144 25q81 0 115 -56q48 56 118 56q165 0 153 -275zM538 294q0 103 -19 145.5t-57 42.5q-49 0 -72 -45.5t-25 -142.5h173zM285 151v126l-45 -1q-59 -2 -87 -24t-28 -88t18.5 -87.5t56.5 -21.5
q31 0 58 28.5t27 67.5z" />
    <glyph glyph-name="ccedilla" unicode="&#xe7;" horiz-adv-x="340" 
d="M320 11q-42 -17 -84 -20q28 -39 28 -81q0 -54 -31.5 -77t-74.5 -23q-17 0 -36.5 4t-30.5 8l-11 5v62q40 -16 69 -16q43 0 43 45q0 32 -18 78q-124 33 -124 266q0 71 13.5 124t33 81.5t47 46t49 22t45.5 4.5q23 0 43.5 -5t29.5 -9l9 -5v-68q-42 19 -89 19
q-101 0 -101 -210q0 -106 26.5 -154t66.5 -48q22 0 46 5.5t37 10.5l14 6v-71z" />
    <glyph glyph-name="egrave" unicode="&#xe8;" horiz-adv-x="421" 
d="M266 620h-82l-124 150h108zM380 265l-1 -23h-250q0 -59 9.5 -98.5t26.5 -56.5t33 -22.5t37 -5.5q16 0 44 4.5t48 9.5l20 5v-70q-62 -18 -112 -18q-24 0 -43.5 3.5t-42 13t-39 29t-31 48t-22 73.5t-7.5 103q0 152 49.5 216t127.5 64q165 0 153 -275zM303 294
q0 103 -19 145.5t-57 42.5q-49 0 -72 -45.5t-25 -142.5h173z" />
    <glyph glyph-name="eacute" unicode="&#xe9;" horiz-adv-x="421" 
d="M386 770l-124 -150h-82l98 150h108zM380 265l-1 -23h-250q0 -59 9.5 -98.5t26.5 -56.5t33 -22.5t37 -5.5q16 0 44 4.5t48 9.5l20 5v-70q-62 -18 -112 -18q-24 0 -43.5 3.5t-42 13t-39 29t-31 48t-22 73.5t-7.5 103q0 152 49.5 216t127.5 64q165 0 153 -275zM303 294
q0 103 -19 145.5t-57 42.5q-49 0 -72 -45.5t-25 -142.5h173z" />
    <glyph glyph-name="ecircumflex" unicode="&#xea;" horiz-adv-x="421" 
d="M393 620h-102l-71 92l-71 -92h-102l138 150h70zM380 265l-1 -23h-250q0 -59 9.5 -98.5t26.5 -56.5t33 -22.5t37 -5.5q16 0 44 4.5t48 9.5l20 5v-70q-62 -18 -112 -18q-24 0 -43.5 3.5t-42 13t-39 29t-31 48t-22 73.5t-7.5 103q0 152 49.5 216t127.5 64q165 0 153 -275z
M303 294q0 103 -19 145.5t-57 42.5q-49 0 -72 -45.5t-25 -142.5h173z" />
    <glyph glyph-name="edieresis" unicode="&#xeb;" horiz-adv-x="421" 
d="M354 675q0 -23 -16 -39t-38 -16t-38 16t-16 39t16 39t38 16t38 -16t16 -39zM185 675q0 -23 -16 -39t-38 -16t-38 16t-16 39t16 39t38 16t38 -16t16 -39zM380 265l-1 -23h-250q0 -59 9.5 -98.5t26.5 -56.5t33 -22.5t37 -5.5q16 0 44 4.5t48 9.5l20 5v-70q-62 -18 -112 -18
q-24 0 -43.5 3.5t-42 13t-39 29t-31 48t-22 73.5t-7.5 103q0 152 49.5 216t127.5 64q165 0 153 -275zM303 294q0 103 -19 145.5t-57 42.5q-49 0 -72 -45.5t-25 -142.5h173z" />
    <glyph glyph-name="igrave" unicode="&#xec;" horiz-adv-x="220" 
d="M153 620h-82l-124 150h108zM150 0h-80v530h80v-530z" />
    <glyph glyph-name="iacute" unicode="&#xed;" horiz-adv-x="220" 
d="M278 770l-124 -150h-82l98 150h108zM150 0h-80v530h80v-530z" />
    <glyph glyph-name="icircumflex" unicode="&#xee;" horiz-adv-x="220" 
d="M283 620h-102l-71 92l-71 -92h-102l138 150h70zM150 0h-80v530h80v-530z" />
    <glyph glyph-name="idieresis" unicode="&#xef;" horiz-adv-x="220" 
d="M239 675q0 -23 -16 -39t-38 -16t-38 16t-16 39t16 39t38 16t38 -16t16 -39zM90 675q0 -23 -16 -39t-38 -16t-38 16t-16 39t16 39t38 16t38 -16t16 -39zM150 0h-80v530h80v-530z" />
    <glyph glyph-name="eth" unicode="&#xf0;" 
d="M420 280q0 -85 -13.5 -144t-40 -90t-58 -43.5t-73.5 -12.5q-29 0 -52 4t-49 18.5t-43.5 39t-29 68.5t-11.5 103q0 119 47.5 173t127.5 54q35 0 62.5 -11.5t38.5 -22.5l10 -12q-15 99 -46 152l-95 -76v82l54 43q-48 39 -147 51v64q128 -7 202 -70l86 68v-82l-42 -34
q72 -101 72 -322zM340 270l-3 80q-47 37 -102 37q-60 0 -82.5 -38t-22.5 -126q0 -101 25 -135t80 -34q57 0 81 45t24 171z" />
    <glyph glyph-name="ntilde" unicode="&#xf1;" horiz-adv-x="505" 
d="M403 655q-41 -26 -73 -26q-35 0 -74 26q-45 30 -77 30q-29 0 -76 -30v80q48 28 87 28t83 -28q41 -26 66 -26q22 0 64 25v-79zM430 0h-80v396q0 39 -12 55.5t-43 16.5q-27 0 -60.5 -11t-54.5 -21l-20 -11v-425h-80v530h57l20 -55l24 18t56 29t76 18q117 0 117 -138v-402z
" />
    <glyph glyph-name="ograve" unicode="&#xf2;" horiz-adv-x="454" 
d="M266 620h-82l-124 150h108zM414 265q0 -82 -15.5 -138.5t-43 -85t-58.5 -40t-70 -11.5t-70 12t-58.5 40.5t-43 85t-15.5 137.5q0 275 187 275t187 -275zM334 265q0 123 -29 168.5t-78 45.5q-107 0 -107 -214q0 -118 32 -165.5t75 -47.5t75 48t32 165z" />
    <glyph glyph-name="oacute" unicode="&#xf3;" horiz-adv-x="454" 
d="M386 770l-124 -150h-82l98 150h108zM414 265q0 -82 -15.5 -138.5t-43 -85t-58.5 -40t-70 -11.5t-70 12t-58.5 40.5t-43 85t-15.5 137.5q0 275 187 275t187 -275zM334 265q0 123 -29 168.5t-78 45.5q-107 0 -107 -214q0 -118 32 -165.5t75 -47.5t75 48t32 165z" />
    <glyph glyph-name="ocircumflex" unicode="&#xf4;" horiz-adv-x="454" 
d="M400 620h-102l-71 92l-71 -92h-102l138 150h70zM414 265q0 -82 -15.5 -138.5t-43 -85t-58.5 -40t-70 -11.5t-70 12t-58.5 40.5t-43 85t-15.5 137.5q0 275 187 275t187 -275zM334 265q0 123 -29 168.5t-78 45.5q-107 0 -107 -214q0 -118 32 -165.5t75 -47.5t75 48t32 165z
" />
    <glyph glyph-name="otilde" unicode="&#xf5;" horiz-adv-x="454" 
d="M377 655q-41 -26 -73 -26q-35 0 -74 26q-45 30 -77 30q-30 0 -76 -30v80q48 28 87 28t83 -28q41 -26 66 -26q22 0 64 25v-79zM414 265q0 -82 -15.5 -138.5t-43 -85t-58.5 -40t-70 -11.5t-70 12t-58.5 40.5t-43 85t-15.5 137.5q0 275 187 275t187 -275zM334 265
q0 123 -29 168.5t-78 45.5q-107 0 -107 -214q0 -118 32 -165.5t75 -47.5t75 48t32 165z" />
    <glyph glyph-name="odieresis" unicode="&#xf6;" horiz-adv-x="454" 
d="M366 675q0 -23 -16 -39t-38 -16t-38 16t-16 39t16 39t38 16t38 -16t16 -39zM197 675q0 -23 -16 -39t-38 -16t-38 16t-16 39t16 39t38 16t38 -16t16 -39zM414 265q0 -82 -15.5 -138.5t-43 -85t-58.5 -40t-70 -11.5t-70 12t-58.5 40.5t-43 85t-15.5 137.5q0 275 187 275
t187 -275zM334 265q0 123 -29 168.5t-78 45.5q-107 0 -107 -214q0 -118 32 -165.5t75 -47.5t75 48t32 165z" />
    <glyph glyph-name="divide" unicode="&#xf7;" horiz-adv-x="531" 
d="M331 543q0 -29 -18.5 -48.5t-46.5 -19.5t-47 20t-19 48t19 47.5t47 19.5t46.5 -19.5t18.5 -47.5zM461 305h-391v75h391v-75zM331 128q0 -29 -18.5 -48.5t-46.5 -19.5t-47 20t-19 48t19 47.5t47 19.5t46.5 -19.5t18.5 -47.5z" />
    <glyph glyph-name="oslash" unicode="&#xf8;" horiz-adv-x="454" 
d="M414 265q0 -82 -15.5 -138.5t-43 -85t-58.5 -40t-70 -11.5q-44 0 -74 13l-46 -113h-62l59 146q-64 66 -64 229q0 150 52.5 212.5t134.5 62.5q43 0 74 -13l46 113h62l-59 -146q64 -66 64 -229zM277 465q-21 14 -50 14q-107 0 -107 -214q0 -86 20 -139zM334 265
q0 91 -18 143l-137 -339q23 -17 48 -17q43 0 75 48t32 165z" />
    <glyph glyph-name="ugrave" unicode="&#xf9;" horiz-adv-x="495" 
d="M296 620h-82l-124 150h108zM415 0h-63l-11 51q-64 -61 -131 -61q-135 0 -135 145v395h80v-385q0 -48 15.5 -66t49.5 -18q46 0 115 48v421h80v-530z" />
    <glyph glyph-name="uacute" unicode="&#xfa;" horiz-adv-x="495" 
d="M406 770l-124 -150h-82l98 150h108zM415 0h-63l-11 51q-64 -61 -131 -61q-135 0 -135 145v395h80v-385q0 -48 15.5 -66t49.5 -18q46 0 115 48v421h80v-530z" />
    <glyph glyph-name="ucircumflex" unicode="&#xfb;" horiz-adv-x="495" 
d="M421 620h-102l-71 92l-71 -92h-102l138 150h70zM415 0h-63l-11 51q-64 -61 -131 -61q-135 0 -135 145v395h80v-385q0 -48 15.5 -66t49.5 -18q46 0 115 48v421h80v-530z" />
    <glyph glyph-name="udieresis" unicode="&#xfc;" horiz-adv-x="495" 
d="M386 675q0 -23 -16 -39t-38 -16t-38 16t-16 39t16 39t38 16t38 -16t16 -39zM217 675q0 -23 -16 -39t-38 -16t-38 16t-16 39t16 39t38 16t38 -16t16 -39zM415 0h-63l-11 51q-64 -61 -131 -61q-135 0 -135 145v395h80v-385q0 -48 15.5 -66t49.5 -18q46 0 115 48v421h80
v-530z" />
    <glyph glyph-name="yacute" unicode="&#xfd;" horiz-adv-x="395" 
d="M366 770l-124 -150h-82l98 150h108zM390 530l-164 -625q-27 -105 -129 -105q-15 0 -34 3t-31 6l-11 3v66q51 -11 69 -11q27 0 43 12t25 50l15 62l-168 539h95l107 -443l94 443h89z" />
    <glyph glyph-name="thorn" unicode="&#xfe;" horiz-adv-x="480" 
d="M430 268q0 -71 -13 -124.5t-32 -82t-46 -45.5t-48.5 -21.5t-45.5 -4.5q-47 0 -85 26v-206h-80v910h80v-230q46 50 110 50q25 0 45.5 -5.5t43 -22.5t37.5 -46t24.5 -79.5t9.5 -118.5zM350 268q0 67 -7 110t-22 63t-31 26.5t-40 6.5q-46 0 -90 -41v-363q48 -16 73 -16
q23 0 41 7.5t36.5 28t29 65.5t10.5 113z" />
    <glyph glyph-name="ydieresis" unicode="&#xff;" horiz-adv-x="395" 
d="M339 675q0 -23 -16 -39t-38 -16t-38 16t-16 39t16 39t38 16t38 -16t16 -39zM170 675q0 -23 -16 -39t-38 -16t-38 16t-16 39t16 39t38 16t38 -16t16 -39zM390 530l-164 -625q-27 -105 -129 -105q-15 0 -34 3t-31 6l-11 3v66q51 -11 69 -11q27 0 43 12t25 50l15 62
l-168 539h95l107 -443l94 443h89z" />
    <glyph glyph-name="dotlessi" unicode="&#x131;" horiz-adv-x="220" 
d="M150 0h-80v530h80v-530z" />
    <glyph glyph-name="Lslash" unicode="&#x141;" horiz-adv-x="330" 
d="M320 74l-10 -74h-230v324l-55 -48v88l55 48v288h80v-218l95 83v-88l-95 -83v-320h160z" />
    <glyph glyph-name="lslash" unicode="&#x142;" horiz-adv-x="240" 
d="M215 449l-55 -50v-399h-80v326l-55 -50v88l55 50v306h80v-233l55 50v-88z" />
    <glyph glyph-name="OE" unicode="&#x152;" horiz-adv-x="549" 
d="M519 0h-232q-31 -10 -52 -10q-31 0 -55.5 6.5t-52 28.5t-45.5 60t-30 105.5t-12 159.5t12.5 160t31 105.5t46.5 59.5t52 28.5t53 6.5l52 -10h232v-74h-180v-216h170v-68h-170v-268h180v-74zM259 54v592q-16 4 -24 4q-25 0 -44.5 -13.5t-36 -45.5t-25.5 -92.5t-9 -148.5
q0 -163 33 -231.5t82 -68.5z" />
    <glyph glyph-name="oe" unicode="&#x153;" horiz-adv-x="705" 
d="M664 265l-1 -23h-250q0 -59 9.5 -98.5t26.5 -56.5t33 -22.5t37 -5.5q16 0 44 4.5t48 9.5l20 5v-70q-62 -18 -112 -18q-104 0 -148 80q-49 -80 -144 -80q-39 0 -70 12t-58.5 40.5t-43 85t-15.5 137.5q0 150 52.5 212.5t134.5 62.5q99 0 147 -83q43 83 137 83
q165 0 153 -275zM587 294q0 103 -19 145.5t-57 42.5q-49 0 -72 -45.5t-25 -142.5h173zM334 265q0 214 -107 214t-107 -214q0 -118 32 -165.5t75 -47.5t75 48t32 165z" />
    <glyph glyph-name="Scaron" unicode="&#x160;" horiz-adv-x="360" 
d="M373 870l-138 -120h-70l-138 120h104l69 -72l69 72h104zM325 179q0 -189 -188 -189q-22 0 -47 4.5t-39 9.5l-14 4v74q55 -20 100 -20q50 0 79 25t29 88q0 35 -11.5 62.5t-23.5 41t-38 37.5l-58 54q-69 63 -69 159t50.5 138.5t119.5 42.5q20 0 43 -4t36 -8l14 -4v-71
q-49 18 -93 18q-42 0 -67 -26.5t-25 -77.5q0 -40 15 -66.5t44 -54.5l54 -51q42 -40 65.5 -81.5t23.5 -104.5z" />
    <glyph glyph-name="scaron" unicode="&#x161;" horiz-adv-x="324" 
d="M345 770l-138 -150h-70l-138 150h102l71 -92l71 92h102zM289 140q0 -150 -160 -150q-19 0 -41.5 4.5t-35.5 9.5l-14 4v71q58 -21 91 -21q84 0 84 82q0 32 -13.5 51t-42.5 40l-38 28q-35 26 -54.5 56.5t-19.5 80.5q0 67 40 105.5t104 38.5q24 0 46.5 -5t32.5 -9l11 -5v-67
q-41 19 -87 19q-34 0 -53 -19.5t-19 -54.5q0 -29 12.5 -46t38.5 -37l44 -33q74 -55 74 -143z" />
    <glyph glyph-name="Ydieresis" unicode="&#x178;" horiz-adv-x="400" 
d="M339 805q0 -23 -16 -39t-38 -16t-38 16t-16 39t16 39t38 16t38 -16t16 -39zM170 805q0 -23 -16 -39t-38 -16t-38 16t-16 39t16 39t38 16t38 -16t16 -39zM410 700l-170 -412v-288h-80v288l-170 412h98l112 -342l112 342h98z" />
    <glyph glyph-name="Zcaron" unicode="&#x17d;" horiz-adv-x="368" 
d="M357 870l-138 -120h-70l-138 120h104l69 -72l69 72h104zM330 0h-290v61l210 570h-210v69h290v-61l-210 -570h210v-69z" />
    <glyph glyph-name="zcaron" unicode="&#x17e;" horiz-adv-x="363" 
d="M355 770l-138 -150h-70l-138 150h102l71 -92l71 92h102zM325 0h-285v55l201 408h-201v67h285v-55l-201 -408h201v-67z" />
    <glyph glyph-name="florin" unicode="&#x192;" horiz-adv-x="260" 
d="M366 644l-11 -62q-48 24 -83 24q-54 0 -66 -69l-12 -67h90l-20 -61h-80l-69 -391q-18 -101 -67.5 -154.5t-159.5 -53.5l11 64q61 7 92.5 41.5t42.5 96.5l70 397h-60l10 61h60l12 65q25 135 143 135q23 0 47 -6.5t37 -13.5z" />
    <glyph glyph-name="circumflex" unicode="&#x2c6;" horiz-adv-x="406" 
d="M376 620h-102l-71 92l-71 -92h-102l138 150h70z" />
    <glyph glyph-name="caron" unicode="&#x2c7;" horiz-adv-x="406" 
d="M376 770l-138 -150h-70l-138 150h102l71 -92l71 92h102z" />
    <glyph glyph-name="breve" unicode="&#x2d8;" horiz-adv-x="372" 
d="M342 770q0 -80 -41 -120t-115 -40q-156 0 -156 160h75q0 -49 24 -74.5t57 -25.5q30 0 55.5 25.5t25.5 74.5h75z" />
    <glyph glyph-name="dotaccent" unicode="&#x2d9;" horiz-adv-x="191" 
d="M161 683q0 -29 -18.5 -48.5t-46.5 -19.5t-47 20t-19 48t19 47.5t47 19.5t46.5 -19.5t18.5 -47.5z" />
    <glyph glyph-name="ring" unicode="&#x2da;" horiz-adv-x="286" 
d="M256 683q0 -54 -31 -83t-82 -29q-52 0 -82.5 28.5t-30.5 83.5q0 54 31 83t82 29q48 0 80.5 -29.5t32.5 -82.5zM196 683q0 63 -53 63t-53 -63t53 -63t53 63z" />
    <glyph glyph-name="ogonek" unicode="&#x2db;" horiz-adv-x="244" 
d="M214 -173q-40 -17 -78 -17q-43 0 -74.5 23t-31.5 77q0 25 11 50t22 38l11 12h52q-24 -49 -24 -92q0 -45 43 -45q13 0 30 4t28 8l11 4v-62z" />
    <glyph glyph-name="tilde" unicode="&#x2dc;" horiz-adv-x="360" 
d="M330 655q-41 -26 -73 -26q-35 0 -74 26q-45 30 -77 30q-30 0 -76 -30v80q48 28 87 28t83 -28q41 -26 66 -26q22 0 64 25v-79z" />
    <glyph glyph-name="hungarumlaut" unicode="&#x2dd;" horiz-adv-x="354" 
d="M324 770l-94 -150h-62l58 150h98zM186 770l-94 -150h-62l58 150h98z" />
    <glyph glyph-name="endash" unicode="&#x2013;" horiz-adv-x="560" 
d="M490 305h-420v75h420v-75z" />
    <glyph glyph-name="emdash" unicode="&#x2014;" horiz-adv-x="660" 
d="M590 305h-520v75h520v-75z" />
    <glyph glyph-name="quoteleft" unicode="&#x2018;" horiz-adv-x="256" 
d="M186 700l-18 -275h-108l64 275h62z" />
    <glyph glyph-name="quoteright" unicode="&#x2019;" horiz-adv-x="256" 
d="M196 700l-64 -275h-62l18 275h108z" />
    <glyph glyph-name="quotesinglbase" unicode="&#x201a;" horiz-adv-x="256" 
d="M196 125l-64 -275h-62l18 275h108z" />
    <glyph glyph-name="quotedblleft" unicode="&#x201c;" horiz-adv-x="436" 
d="M366 700l-18 -275h-108l64 275h62zM186 700l-18 -275h-108l64 275h62z" />
    <glyph glyph-name="quotedblright" unicode="&#x201d;" horiz-adv-x="436" 
d="M376 700l-64 -275h-62l18 275h108zM196 700l-64 -275h-62l18 275h108z" />
    <glyph glyph-name="quotedblbase" unicode="&#x201e;" horiz-adv-x="436" 
d="M376 125l-64 -275h-62l18 275h108zM196 125l-64 -275h-62l18 275h108z" />
    <glyph glyph-name="dagger" unicode="&#x2020;" horiz-adv-x="490" 
d="M440 455h-160v-455h-80v455h-150v75h150v190h80v-190h160v-75z" />
    <glyph glyph-name="daggerdbl" unicode="&#x2021;" horiz-adv-x="490" 
d="M440 190h-160v-190h-80v190h-150v75h150v190h-150v75h150v190h80v-190h160v-75h-160v-190h160v-75z" />
    <glyph glyph-name="bullet" unicode="&#x2022;" horiz-adv-x="341" 
d="M261 378q0 -38 -26 -65t-64 -27q-39 0 -65 27t-26 65t26.5 64.5t64.5 26.5q39 0 64.5 -26.5t25.5 -64.5z" />
    <glyph glyph-name="ellipsis" unicode="&#x2026;" horiz-adv-x="753" 
d="M673 58q0 -29 -18.5 -48.5t-46.5 -19.5t-47 20t-19 48t19 47.5t47 19.5t46.5 -19.5t18.5 -47.5zM442 58q0 -29 -18.5 -48.5t-46.5 -19.5t-47 20t-19 48t19 47.5t47 19.5t46.5 -19.5t18.5 -47.5zM211 58q0 -29 -18.5 -48.5t-46.5 -19.5t-47 20t-19 48t19 47.5t47 19.5
t46.5 -19.5t18.5 -47.5z" />
    <glyph glyph-name="perthousand" unicode="&#x2030;" horiz-adv-x="1081" 
d="M1041 170q0 -180 -137 -180q-63 0 -100 39.5t-37 140.5q0 98 38.5 139t98.5 41q137 0 137 -180zM707 170q0 -180 -137 -180q-63 0 -100 39.5t-37 140.5q0 98 38.5 139t98.5 41q137 0 137 -180zM550 710l-280 -720h-72l280 720h72zM314 530q0 -180 -137 -180
q-63 0 -100 39.5t-37 140.5q0 98 38.5 139t98.5 41q137 0 137 -180zM971 170q0 72 -16 99t-51 27q-33 0 -50 -27t-17 -99q0 -71 16 -97.5t51 -26.5q33 0 50 25.5t17 98.5zM637 170q0 72 -16 99t-51 27q-33 0 -50 -27t-17 -99q0 -71 16 -97.5t51 -26.5q33 0 50 25.5t17 98.5z
M244 530q0 72 -16 99t-51 27q-33 0 -50 -27t-17 -99q0 -71 16 -97.5t51 -26.5q33 0 50 25.5t17 98.5z" />
    <glyph glyph-name="guilsinglleft" unicode="&#x2039;" horiz-adv-x="270" 
d="M220 110l-180 215v20l180 215v-124l-95 -99l95 -103v-124z" />
    <glyph glyph-name="guilsinglright" unicode="&#x203a;" horiz-adv-x="270" 
d="M230 325l-180 -215v124l95 103l-95 99v124l180 -215v-20z" />
    <glyph glyph-name="fraction" unicode="&#x2044;" horiz-adv-x="190" 
d="M310 810l-360 -920h-70l360 920h70z" />
    <glyph glyph-name="trademark" unicode="&#x2122;" horiz-adv-x="725" 
d="M655 280h-67l-1 292l-112 -213l-110 209l-3 -288h-69l15 359h-115v-359h-69v359h-104v61h333l122 -228l120 228h44z" />
    <glyph glyph-name="minus" unicode="&#x2212;" horiz-adv-x="500" 
d="M430 305h-360v75h360v-75z" />
    <glyph glyph-name="fi" unicode="&#xfb01;" horiz-adv-x="490" 
d="M434 670q0 -23 -16 -39t-38 -16t-38 16t-16 39t16 39t38 16t38 -16t16 -39zM420 0h-80v469h-190v-469h-80v469h-60v61h60v65q0 135 129 135q23 0 45.5 -4t33.5 -8l12 -4v-62q-53 14 -88 14q-52 0 -52 -69v-67h270v-530z" />
    <glyph glyph-name="fl" unicode="&#xfb02;" horiz-adv-x="495" 
d="M420 0h-80v632q-67 34 -117 34q-39 0 -56 -19t-17 -65v-52h80l-10 -61h-70v-469h-80v469h-60v61h60v48q0 85 40 118.5t113 33.5q25 0 54.5 -9t46.5 -19l18 -9l78 27v-720z" />
    </font>
</defs>
</svg>
